<?xml version="1.0" encoding="UTF-8"?>
<svg xmlns="http://www.w3.org/2000/svg" xmlns:xlink="http://www.w3.org/1999/xlink" width="67px" height="67px" viewBox="0 0 67 67" version="1.1">
<g id="surface1">
<path style=" stroke:none;fill-rule:nonzero;fill:rgb(0%,0%,0%);fill-opacity:1;" d="M 26.164062 42.324219 C 24.746094 42.074219 23.359375 41.957031 21.976562 41.804688 C 20.941406 41.695312 19.902344 41.589844 18.863281 41.484375 C 18.628906 41.460938 18.53125 41.34375 18.550781 41.101562 C 18.652344 39.957031 18.738281 38.8125 18.835938 37.667969 C 18.960938 36.25 19.097656 34.828125 19.226562 33.410156 C 19.394531 31.554688 19.5625 29.703125 19.722656 27.847656 C 19.839844 26.496094 19.949219 25.144531 20.066406 23.792969 C 20.191406 22.351562 20.324219 20.914062 20.449219 19.476562 C 20.507812 18.835938 20.574219 18.195312 20.589844 17.550781 C 20.601562 17.113281 20.765625 16.953125 21.195312 17.035156 C 24.214844 17.621094 27.191406 18.351562 29.84375 20 C 31.15625 20.816406 32.269531 21.824219 32.714844 23.390625 C 32.835938 23.8125 32.90625 24.238281 32.90625 24.675781 C 32.902344 31.445312 32.90625 38.214844 32.902344 44.984375 C 32.902344 45.167969 32.957031 45.367188 32.761719 45.632812 C 31.054688 43.566406 28.726562 42.75 26.164062 42.324219 Z M 26.164062 42.324219 "/>
<path style=" stroke:none;fill-rule:nonzero;fill:rgb(0%,0%,0%);fill-opacity:1;" d="M 39.195312 41.609375 C 37.289062 42.535156 35.746094 43.859375 34.457031 45.5 C 34.246094 45.277344 34.308594 45.078125 34.308594 44.898438 C 34.304688 38.148438 34.300781 31.398438 34.304688 24.652344 C 34.308594 23.09375 35 21.835938 36.066406 20.757812 C 37.835938 18.972656 40.03125 17.882812 42.320312 16.949219 C 43.542969 16.449219 44.796875 16.027344 46.070312 15.65625 C 46.457031 15.542969 46.589844 15.621094 46.625 16.039062 C 46.8125 18.289062 47.035156 20.539062 47.230469 22.789062 C 47.421875 24.972656 47.582031 27.15625 47.777344 29.335938 C 48 31.796875 48.25 34.25 48.480469 36.707031 C 48.546875 37.417969 48.578125 38.132812 48.644531 38.84375 C 48.6875 39.316406 48.296875 39.222656 48.074219 39.265625 C 47.152344 39.4375 46.21875 39.546875 45.296875 39.71875 C 43.203125 40.105469 41.152344 40.648438 39.195312 41.609375 Z M 39.195312 41.609375 "/>
<path style=" stroke:none;fill-rule:nonzero;fill:rgb(0%,0%,0%);fill-opacity:1;" d="M 46.417969 44.480469 C 43.492188 44.3125 40.621094 43.949219 37.710938 44.285156 C 38.199219 43.769531 38.789062 43.421875 39.390625 43.097656 C 41.503906 41.964844 43.804688 41.417969 46.144531 41.003906 C 47.375 40.785156 48.613281 40.589844 49.859375 40.480469 C 50.175781 40.453125 50.230469 40.273438 50.207031 40.019531 C 50.050781 38.339844 49.886719 36.664062 49.730469 34.984375 C 49.574219 33.285156 49.425781 31.585938 49.273438 29.890625 C 49.109375 28.089844 48.941406 26.289062 48.78125 24.484375 C 48.644531 22.945312 48.515625 21.40625 48.378906 19.828125 C 48.996094 19.671875 49.574219 19.777344 50.148438 19.878906 C 50.363281 19.917969 50.355469 20.140625 50.371094 20.308594 C 50.519531 22.089844 50.660156 23.875 50.8125 25.660156 C 50.972656 27.476562 51.152344 29.292969 51.308594 31.113281 C 51.464844 32.914062 51.597656 34.71875 51.753906 36.519531 C 51.910156 38.300781 52.09375 40.082031 52.25 41.863281 C 52.316406 42.609375 52.339844 43.355469 52.410156 44.101562 C 52.445312 44.445312 52.230469 44.496094 52.003906 44.503906 C 50.855469 44.535156 49.707031 44.652344 48.554688 44.582031 C 47.859375 44.539062 47.164062 44.519531 46.417969 44.480469 Z M 46.417969 44.480469 "/>
<path style=" stroke:none;fill-rule:nonzero;fill:rgb(0%,0%,0%);fill-opacity:1;" d="M 56.234375 47.226562 C 56.253906 48.378906 56.410156 48.167969 55.351562 48.253906 C 53.753906 48.386719 52.148438 48.253906 50.546875 48.132812 C 47.824219 47.921875 45.132812 47.421875 42.417969 47.132812 C 40.539062 46.933594 38.671875 46.792969 36.808594 47.246094 C 35.953125 47.453125 35.171875 47.820312 34.375 48.414062 C 34.457031 47.976562 34.6875 47.761719 34.867188 47.53125 C 35.960938 46.136719 37.507812 45.714844 39.167969 45.613281 C 41.539062 45.46875 43.898438 45.746094 46.257812 45.902344 C 48.609375 46.058594 50.960938 46.101562 53.304688 45.804688 C 54.015625 45.714844 54.015625 45.660156 53.9375 44.933594 C 53.789062 43.546875 53.6875 42.160156 53.566406 40.773438 C 53.40625 38.96875 53.25 37.167969 53.09375 35.363281 C 52.96875 33.960938 52.851562 32.554688 52.726562 31.148438 C 52.570312 29.347656 52.394531 27.546875 52.253906 25.742188 C 52.199219 25 52.054688 24.261719 52.109375 23.484375 C 52.59375 23.316406 53.046875 23.535156 53.5 23.570312 C 53.664062 23.585938 53.699219 23.800781 53.714844 23.957031 C 53.867188 25.375 54.007812 26.792969 54.160156 28.210938 C 54.351562 29.992188 54.554688 31.769531 54.75 33.550781 C 54.90625 34.984375 55.050781 36.417969 55.207031 37.851562 C 55.363281 39.320312 55.53125 40.789062 55.6875 42.257812 C 55.84375 43.710938 55.996094 45.160156 56.148438 46.613281 C 56.167969 46.804688 56.199219 46.992188 56.234375 47.226562 Z M 56.234375 47.226562 "/>
<path style=" stroke:none;fill-rule:nonzero;fill:rgb(0%,0%,0%);fill-opacity:1;" d="M 17.179688 48.085938 C 15.085938 48.261719 13.042969 48.421875 10.964844 48.175781 C 10.917969 47.136719 11.117188 46.179688 11.210938 45.21875 C 11.347656 43.765625 11.527344 42.316406 11.6875 40.863281 C 11.855469 39.363281 12.023438 37.859375 12.183594 36.359375 C 12.335938 34.957031 12.480469 33.558594 12.628906 32.15625 C 12.828125 30.324219 13.03125 28.496094 13.234375 26.664062 C 13.308594 25.972656 13.394531 25.28125 13.460938 24.589844 C 13.570312 23.523438 13.957031 23.25 15.082031 23.492188 C 15.191406 24.21875 15.007812 24.9375 14.964844 25.660156 C 14.875 27.152344 14.71875 28.640625 14.585938 30.128906 C 14.421875 31.914062 14.25 33.695312 14.089844 35.480469 C 13.972656 36.8125 13.867188 38.148438 13.75 39.484375 C 13.625 40.917969 13.488281 42.355469 13.359375 43.792969 C 13.3125 44.292969 13.335938 44.800781 13.234375 45.300781 C 13.164062 45.625 13.371094 45.710938 13.652344 45.75 C 15.367188 45.980469 17.085938 46.101562 18.8125 46.003906 C 20.253906 45.917969 21.695312 45.859375 23.136719 45.734375 C 24.75 45.589844 26.371094 45.507812 27.988281 45.609375 C 29.589844 45.714844 31.09375 46.082031 32.214844 47.355469 C 32.453125 47.628906 32.671875 47.917969 32.832031 48.289062 C 32.746094 48.289062 32.683594 48.308594 32.65625 48.285156 C 31.273438 47.261719 29.671875 46.980469 28.015625 46.945312 C 25.9375 46.898438 23.886719 47.226562 21.835938 47.503906 C 20.300781 47.707031 18.761719 47.890625 17.179688 48.085938 Z M 17.179688 48.085938 "/>
<path style=" stroke:none;fill-rule:nonzero;fill:rgb(0%,0%,0%);fill-opacity:1;" d="M 22.652344 44.332031 C 20.539062 44.492188 18.472656 44.6875 16.394531 44.550781 C 16.015625 44.523438 15.628906 44.535156 15.246094 44.515625 C 14.925781 44.496094 14.761719 44.390625 14.800781 43.992188 C 15.039062 41.34375 15.242188 38.691406 15.46875 36.039062 C 15.707031 33.269531 15.953125 30.496094 16.195312 27.722656 C 16.410156 25.28125 16.625 22.839844 16.832031 20.398438 C 16.863281 20.039062 16.933594 19.832031 17.375 19.824219 C 17.769531 19.816406 18.171875 19.765625 18.574219 19.75 C 18.902344 19.738281 18.996094 19.894531 18.964844 20.199219 C 18.726562 22.730469 18.488281 25.257812 18.265625 27.785156 C 18.074219 29.984375 17.914062 32.1875 17.722656 34.390625 C 17.53125 36.589844 17.316406 38.789062 17.117188 40.988281 C 17.082031 41.402344 17.109375 41.824219 17.007812 42.234375 C 16.921875 42.574219 17.128906 42.710938 17.429688 42.746094 C 18.46875 42.863281 19.503906 42.992188 20.542969 43.089844 C 22.757812 43.304688 24.972656 43.511719 27.160156 43.9375 C 27.265625 43.957031 27.363281 43.976562 27.445312 44.179688 C 25.828125 44.09375 24.269531 44.273438 22.652344 44.332031 Z M 22.652344 44.332031 "/>
<path style=" stroke:none;fill-rule:nonzero;fill:rgb(0%,0%,0%);fill-opacity:1;" d="M 41.347656 48.4375 C 43.453125 48.660156 45.496094 48.972656 47.546875 49.25 C 50.3125 49.625 53.09375 49.78125 55.886719 49.683594 C 55.984375 49.679688 56.085938 49.683594 56.226562 49.683594 C 56.226562 50.332031 56.226562 50.949219 56.226562 51.5625 C 56.035156 51.695312 55.835938 51.644531 55.648438 51.644531 C 48.933594 51.648438 42.21875 51.644531 35.503906 51.644531 C 35.347656 51.644531 35.1875 51.65625 35.035156 51.636719 C 34.433594 51.566406 34.132812 50.929688 34.476562 50.4375 C 35.394531 49.113281 36.742188 48.621094 38.273438 48.425781 C 39.285156 48.292969 40.289062 48.394531 41.347656 48.4375 Z M 41.347656 48.4375 "/>
<path style=" stroke:none;fill-rule:nonzero;fill:rgb(0%,0%,0%);fill-opacity:1;" d="M 26.160156 48.433594 C 27.535156 48.269531 28.851562 48.324219 30.148438 48.660156 C 31.207031 48.933594 32.09375 49.5 32.722656 50.417969 C 33.058594 50.90625 32.78125 51.550781 32.195312 51.632812 C 32.042969 51.65625 31.882812 51.644531 31.726562 51.644531 C 25.050781 51.644531 18.375 51.644531 11.695312 51.644531 C 10.949219 51.644531 10.941406 51.644531 10.953125 50.871094 C 10.957031 50.492188 10.90625 50.109375 11.007812 49.691406 C 11.574219 49.691406 12.125 49.679688 12.679688 49.691406 C 15.367188 49.753906 18.023438 49.460938 20.683594 49.097656 C 22.488281 48.851562 24.289062 48.550781 26.160156 48.433594 Z M 26.160156 48.433594 "/>
</g>
</svg>
